REM DIRINDEX 1\5,1\2\6,1\2\7,1\3\8,1\3\9,1\4\10,1\4\11,1\4\12
REM DIRNAME folder01,folder02,folder03,folder04,folder05,folder06,folder07,folder08,folder09,folder10,folder11,folder12
TITLE ""
FILE "EJE_DB3000_5th_5C_01.mp3" MP3
  TRACK 01 AUDIO
    TITLE "0:"
    INDEX 01 00:00:00
  TRACK 02 AUDIO
    TITLE "10:cjc026_10119"
    INDEX 01 00:00:07
  TRACK 03 AUDIO
    TITLE "0:"
    INDEX 01 00:01:03
  TRACK 04 AUDIO
    TITLE "11:cjc026_10120"
    INDEX 01 00:01:26
  TRACK 05 AUDIO
    TITLE "0:"
    INDEX 01 00:02:26
  TRACK 06 AUDIO
    TITLE "12:cjc026_10121"
    INDEX 01 00:02:53
  TRACK 07 AUDIO
    TITLE "0:"
    INDEX 01 00:03:49
  TRACK 08 AUDIO
    TITLE "10:cjc026_10122"
    INDEX 01 00:03:74
  TRACK 09 AUDIO
    TITLE "0:"
    INDEX 01 00:04:64
  TRACK 10 AUDIO
    TITLE "11:cjc026_10123"
    INDEX 01 00:05:16
  TRACK 11 AUDIO
    TITLE "0:"
    INDEX 01 00:06:37
  TRACK 12 AUDIO
    TITLE "12:cjc026_10124"
    INDEX 01 00:06:61
  TRACK 13 AUDIO
    TITLE "0:"
    INDEX 01 00:07:52
  TRACK 14 AUDIO
    TITLE "10:cjc026_10125"
    INDEX 01 00:08:03
  TRACK 15 AUDIO
    TITLE "0:"
    INDEX 01 00:09:00
  TRACK 16 AUDIO
    TITLE "11:cjc026_10126"
    INDEX 01 00:09:26
  TRACK 17 AUDIO
    TITLE "0:"
    INDEX 01 00:10:45
  TRACK 18 AUDIO
    TITLE "12:cjc026_10127"
    INDEX 01 00:10:72
  TRACK 19 AUDIO
    TITLE "0:"
    INDEX 01 00:11:68
  TRACK 20 AUDIO
    TITLE "10:cjc026_10128"
    INDEX 01 00:12:20
  TRACK 21 AUDIO
    TITLE "0:"
    INDEX 01 00:13:14
  TRACK 22 AUDIO
    TITLE "11:cjc026_10129"
    INDEX 01 00:13:39
  TRACK 23 AUDIO
    TITLE "0:"
    INDEX 01 00:14:56
  TRACK 24 AUDIO
    TITLE "12:cjc026_10130"
    INDEX 01 00:15:09
  TRACK 25 AUDIO
    TITLE "0:"
    INDEX 01 00:16:02
  TRACK 26 AUDIO
    TITLE "10:cjc026_10131"
    INDEX 01 00:16:30
  TRACK 27 AUDIO
    TITLE "0:"
    INDEX 01 00:17:20
  TRACK 28 AUDIO
    TITLE "11:cjc026_10132"
    INDEX 01 00:17:47
  TRACK 29 AUDIO
    TITLE "0:"
    INDEX 01 00:18:44
  TRACK 30 AUDIO
    TITLE "12:cjc026_10133"
    INDEX 01 00:18:72
  TRACK 31 AUDIO
    TITLE "0:"
    INDEX 01 00:19:62
  TRACK 32 AUDIO
    TITLE "10:cjc026_10134"
    INDEX 01 00:20:12
  TRACK 33 AUDIO
    TITLE "0:"
    INDEX 01 00:21:02
  TRACK 34 AUDIO
    TITLE "11:cjc026_10135"
    INDEX 01 00:21:31
  TRACK 35 AUDIO
    TITLE "0:"
    INDEX 01 00:22:29
  TRACK 36 AUDIO
    TITLE "12:cjc026_10136"
    INDEX 01 00:22:54
  TRACK 37 AUDIO
    TITLE "0:"
    INDEX 01 00:23:44
  TRACK 38 AUDIO
    TITLE "10:cjc026_10137"
    INDEX 01 00:23:71
  TRACK 39 AUDIO
    TITLE "0:"
    INDEX 01 00:24:61
  TRACK 40 AUDIO
    TITLE "11:cjc026_10138"
    INDEX 01 00:25:13
  TRACK 41 AUDIO
    TITLE "0:"
    INDEX 01 00:26:11
  TRACK 42 AUDIO
    TITLE "12:cjc026_10139"
    INDEX 01 00:26:38
  TRACK 43 AUDIO
    TITLE "0:"
    INDEX 01 00:27:26
  TRACK 44 AUDIO
    TITLE "10:cjc026_10140"
    INDEX 01 00:27:53
  TRACK 45 AUDIO
    TITLE "0:"
    INDEX 01 00:28:39
  TRACK 46 AUDIO
    TITLE "11:cjc026_10141"
    INDEX 01 00:28:62
  TRACK 47 AUDIO
    TITLE "0:"
    INDEX 01 00:29:70
  TRACK 48 AUDIO
    TITLE "12:cjc026_10142"
    INDEX 01 00:30:18
  TRACK 49 AUDIO
    TITLE "0:"
    INDEX 01 00:31:04
  TRACK 50 AUDIO
    TITLE "10:cjc026_10143"
    INDEX 01 00:31:29
  TRACK 51 AUDIO
    TITLE "0:"
    INDEX 01 00:32:17
  TRACK 52 AUDIO
    TITLE "11:cjc026_10144"
    INDEX 01 00:32:45
  TRACK 53 AUDIO
    TITLE "0:"
    INDEX 01 00:33:48
  TRACK 54 AUDIO
    TITLE "12:cjc026_10145"
    INDEX 01 00:33:73
  TRACK 55 AUDIO
    TITLE "0:"
    INDEX 01 00:34:61
  TRACK 56 AUDIO
    TITLE "10:cjc026_10146"
    INDEX 01 00:35:14
  TRACK 57 AUDIO
    TITLE "0:"
    INDEX 01 00:36:01
  TRACK 58 AUDIO
    TITLE "11:cjc026_10147"
    INDEX 01 00:36:29
  TRACK 59 AUDIO
    TITLE "0:"
    INDEX 01 00:37:22
  TRACK 60 AUDIO
    TITLE "12:cjc026_10148"
    INDEX 01 00:37:48
  TRACK 61 AUDIO
    TITLE "0:"
    INDEX 01 00:38:35
  TRACK 62 AUDIO
    TITLE "10:cjc026_10149"
    INDEX 01 00:38:61
  TRACK 63 AUDIO
    TITLE "0:"
    INDEX 01 00:39:49
  TRACK 64 AUDIO
    TITLE "11:cjc026_10150"
    INDEX 01 00:39:74
  TRACK 65 AUDIO
    TITLE "0:"
    INDEX 01 00:41:06
  TRACK 66 AUDIO
    TITLE "12:cjc026_10151"
    INDEX 01 00:41:32
  TRACK 67 AUDIO
    TITLE "0:"
    INDEX 01 00:42:18
  TRACK 68 AUDIO
    TITLE "10:cjc026_10152"
    INDEX 01 00:42:45
  TRACK 69 AUDIO
    TITLE "0:"
    INDEX 01 00:43:31
  TRACK 70 AUDIO
    TITLE "11:cjc026_10153"
    INDEX 01 00:43:58
  TRACK 71 AUDIO
    TITLE "0:"
    INDEX 01 00:44:44
  TRACK 72 AUDIO
    TITLE "12:cjc026_10154"
    INDEX 01 00:44:69
  TRACK 73 AUDIO
    TITLE "0:"
    INDEX 01 00:45:57
  TRACK 74 AUDIO
    TITLE "10:cjc026_10155"
    INDEX 01 00:46:09
  TRACK 75 AUDIO
    TITLE "0:"
    INDEX 01 00:46:70
  TRACK 76 AUDIO
    TITLE "11:cjc026_10156"
    INDEX 01 00:47:21
  TRACK 77 AUDIO
    TITLE "0:"
    INDEX 01 00:48:24
  TRACK 78 AUDIO
    TITLE "12:cjc026_10157"
    INDEX 01 00:48:49
  TRACK 79 AUDIO
    TITLE "0:"
    INDEX 01 00:49:35
  TRACK 80 AUDIO
    TITLE "10:cjc026_10158"
    INDEX 01 00:49:61
  TRACK 81 AUDIO
    TITLE "0:"
    INDEX 01 00:50:64
  TRACK 82 AUDIO
    TITLE "11:cjc026_10159"
    INDEX 01 00:51:13
  TRACK 83 AUDIO
    TITLE "0:"
    INDEX 01 00:52:14
  TRACK 84 AUDIO
    TITLE "12:cjc026_10160"
    INDEX 01 00:52:37
  TRACK 85 AUDIO
    TITLE "0:"
    INDEX 01 00:53:39
